<svg width="138" height="26" viewBox="0 0 138 26" fill="none" xmlns="http://www.w3.org/2000/svg">
<g clip-path="url(#clip0_1_4083)">
<path d="M137.874 13.0268V5.5739C137.874 4.06562 137.686 2.9332 136.696 1.98847C135.682 1.04744 134.362 0.78721 132.901 0.78721C131.255 0.78721 129.162 1.1939 126.92 1.71068C126.639 1.77605 126.352 1.84468 126.067 1.91269C125.006 1.03416 123.436 0.751057 121.952 0.78721C119.816 0.839297 116.012 1.82445 116.012 1.82445L115.894 1.11709H114.763V13.0268H116.153V3.05043C116.153 3.05043 119.688 2.18866 121.882 2.10756C123.069 2.06262 124.353 2.3202 125.036 2.9093C125.674 3.45263 126.027 4.30114 126.027 5.5739V13.0268H127.418V5.5739C127.418 4.57097 127.328 3.73655 126.96 3.01163C127.17 2.96138 127.387 2.9093 127.591 2.86354C129.567 2.4111 131.267 2.10756 132.782 2.10756C133.915 2.10756 134.881 2.3202 135.54 2.9093C136.13 3.45263 136.484 4.30114 136.484 5.5739V13.0268H137.874ZM111.556 7.06012C111.556 4.91413 110.966 3.14481 109.41 2.06079C107.997 1.0932 106.158 0.78721 103.99 0.78721C101.797 0.78721 99.9348 1.0932 98.5446 2.06079C97.0126 3.14481 96.4 4.91413 96.4 7.0838C96.4 9.27738 97.0126 11.022 98.5446 12.0831C99.9348 13.0497 101.797 13.3567 103.99 13.3567C106.134 13.3567 107.997 13.0736 109.41 12.0831C110.942 11.022 111.556 9.25451 111.556 7.06012ZM110.07 7.17818C110.07 9.01716 109.6 10.2442 108.585 11.022C107.596 11.7769 106.064 12.0831 103.99 12.0831C101.962 12.0831 100.478 11.7294 99.4868 10.9744C98.3798 10.1498 97.8843 8.82841 97.8843 6.99046C97.8843 5.14965 98.356 3.89977 99.3934 3.12193C100.383 2.36697 101.915 2.06079 103.99 2.06079C105.922 2.06079 107.384 2.39169 108.374 3.09905C109.553 3.92366 110.07 5.26791 110.07 7.17818ZM89.1319 13.3567C90.6877 13.3567 92.738 12.9792 94.4349 12.6246V11.3758C92.7857 11.7065 90.8762 12.06 89.4385 12.06C87.9532 12.06 86.8222 11.7532 86.021 11.1392C85.0071 10.3385 84.5127 9.01714 84.5127 7.1077C84.5127 5.10286 85.1253 3.73492 86.3982 2.95689C87.3643 2.34308 88.6838 2.08469 90.4293 2.08469C91.7727 2.08469 92.9504 2.20193 94.1758 2.3202V1.02272C92.9037 0.905478 91.7243 0.78721 90.4989 0.78721C88.6602 0.78721 87.0813 1.02272 85.6674 1.84836C83.7579 2.9332 83.0273 4.9609 83.0273 7.0838C83.0273 9.11255 83.4521 10.9276 84.89 12.1068C86.1152 13.1204 87.5997 13.3567 89.1319 13.3567ZM80.3095 7.06012C80.3095 4.91413 79.7207 3.14481 78.1649 2.06079C76.7509 1.0932 74.9119 0.78721 72.7434 0.78721C70.5521 0.78721 68.6903 1.0932 67.2991 2.06079C65.7673 3.14481 65.1536 4.91413 65.1536 7.0838C65.1536 9.27738 65.7673 11.022 67.2991 12.0831C68.6903 13.0497 70.5521 13.3567 72.7434 13.3567C74.8891 13.3567 76.7509 13.0736 78.1649 12.0831C79.6968 11.022 80.3095 9.25451 80.3095 7.06012ZM78.8259 7.17818C78.8259 9.01716 78.3534 10.2442 77.3405 11.022C76.3498 11.7769 74.8186 12.0831 72.7434 12.0831C70.7169 12.0831 69.2325 11.7294 68.2415 10.9744C67.1334 10.1498 66.639 8.82841 66.639 6.99046C66.639 5.14965 67.1105 3.89977 68.1479 3.12193C69.1371 2.36697 70.6702 2.06079 72.7434 2.06079C74.6766 2.06079 76.1372 2.39169 77.1272 3.09905C78.306 3.92366 78.8259 5.26791 78.8259 7.17818ZM60.5433 13.0268H61.9343V5.5739C61.9343 4.06562 61.7456 2.9332 60.6851 1.98847C59.6238 1.04744 58.2329 0.78721 56.7255 0.78721C54.6742 0.78721 52.4844 1.37651 50.5282 1.82445L50.4102 1.11709H49.2792V13.0268H50.6693V3.05043C52.815 2.5547 54.6036 2.10756 56.654 2.10756C57.8563 2.10756 58.8702 2.3202 59.5534 2.9093C60.1898 3.45263 60.5433 4.30032 60.5433 5.5739V13.0268ZM46.0924 7.06012C46.0924 4.91413 45.5029 3.14481 43.9469 2.06079C42.533 1.0932 40.6941 0.78721 38.5256 0.78721C36.3333 0.78721 34.4714 1.0932 33.0813 2.06079C31.5492 3.14481 30.9366 4.91413 30.9366 7.0838C30.9366 9.27738 31.5492 11.022 33.0813 12.0831C34.4714 13.0497 36.3333 13.3567 38.5256 13.3567C40.6713 13.3567 42.533 13.0736 43.9469 12.0831C45.4791 11.022 46.0924 9.25451 46.0924 7.06012ZM44.6062 7.17818C44.6062 9.01716 44.1355 10.2442 43.1219 11.022C42.132 11.7769 40.5998 12.0831 38.5256 12.0831C36.4991 12.0831 35.0137 11.7294 34.0228 10.9744C32.9164 10.1498 32.4211 8.82841 32.4211 6.99046C32.4211 5.14965 32.8927 3.89977 33.9294 3.12193C34.9193 2.36697 36.4524 2.06079 38.5256 2.06079C40.4588 2.06079 41.9202 2.39169 42.9094 3.09905C44.0889 3.92366 44.6062 5.26791 44.6062 7.17818ZM23.6685 13.3567C25.2244 13.3567 27.2757 12.9792 28.9715 12.6246V11.3758C27.3215 11.7065 25.4121 12.06 23.9752 12.06C22.4898 12.06 21.3588 11.7532 20.5576 11.1392C19.544 10.3385 19.0493 9.01714 19.0493 7.1077C19.0493 5.10286 19.6611 3.73492 20.934 2.95689C21.901 2.34308 23.2208 2.08469 24.9651 2.08469C26.3087 2.08469 27.4872 2.20193 28.7126 2.3202V1.02272C27.4397 0.905478 26.262 0.78721 25.0358 0.78721C23.1968 0.78721 21.6181 1.02272 20.2032 1.84836C18.2948 2.9332 17.5639 4.9609 17.5639 7.0838C17.5639 9.11255 17.9879 10.9276 19.4249 12.1068C20.6518 13.1204 22.1365 13.3567 23.6685 13.3567ZM1.80249 7.28133H14.8561V7.25948C14.8542 5.01033 14.5888 2.7514 12.6794 1.47435C11.0734 0.389511 9.11719 0.25 7.5922 0.25C5.48373 0.25 3.85911 0.667308 2.62318 1.52378C1.12819 2.61475 0.269531 4.58077 0.269531 6.91794C0.269531 9.30026 0.916483 11.0159 2.24856 12.1624C3.43407 13.1547 4.96703 13.5595 7.54196 13.5595C9.88868 13.5595 12.49 13.0957 14.2107 12.7887L14.2291 12.786V11.4842L14.2036 11.4877C12.3446 11.8088 10.0287 12.2065 7.66814 12.2065C5.68115 12.2065 4.25576 11.8537 3.31341 11.1296C2.29961 10.3332 1.83413 9.15032 1.80249 7.29298V7.28133ZM1.85088 5.97773L1.85272 5.96629C1.99031 4.41042 2.53315 3.3027 3.51348 2.58043C4.4346 1.8986 5.80813 1.55197 7.5922 1.55197C9.3879 1.55197 10.711 1.83937 11.6376 2.43051C12.7068 3.11846 13.2437 4.24211 13.3231 5.96812L13.3239 5.97773H1.85088Z" fill="#333333"/>
<path d="M8.05197 20.6425C8.05197 19.9167 7.84169 19.2647 7.33724 18.8546C6.66436 18.3076 5.70791 18.2655 4.30969 18.2655H1.28235V25.4701H2.37558V23.1036H4.15209C5.63422 23.1036 6.60128 23.0406 7.36868 22.4093C7.86272 22.0099 8.05197 21.3683 8.05197 20.6425ZM6.93771 20.674C6.93771 21.9047 6.20195 22.22 4.37278 22.22H2.37558V19.149H4.37278C5.97065 19.149 6.93771 19.3069 6.93771 20.674Z" fill="#333333"/>
<path d="M10.6167 25.4701V21.2631C11.6154 21.0107 12.1411 20.9055 12.9293 20.9055C13.024 20.9055 13.1396 20.9055 13.2341 20.916V20.0116H13.1185C12.1515 20.0116 11.5419 20.2113 10.4801 20.4848L10.4276 20.1586H9.60754V25.4701H10.6167Z" fill="#333333"/>
<path d="M20.5294 22.8091C20.5294 21.852 20.2772 21.0634 19.5623 20.5795C18.9422 20.1483 18.1117 20.0116 17.1236 20.0116C16.1146 20.0116 15.2841 20.1483 14.6638 20.5795C13.9595 21.0634 13.6968 21.8626 13.6968 22.8197C13.6968 23.7871 13.9595 24.5761 14.6638 25.06C15.2841 25.4912 16.1146 25.6173 17.1236 25.6173C18.1011 25.6173 18.9422 25.4912 19.5623 25.06C20.2665 24.5761 20.5294 23.7767 20.5294 22.8091ZM19.4783 22.8616C19.4783 24.2921 18.753 24.8074 17.1236 24.8074C15.4627 24.8074 14.7479 24.1869 14.7479 22.7775C14.7479 21.3472 15.4733 20.8319 17.1236 20.8319C18.7634 20.8319 19.4783 21.4628 19.4783 22.8616Z" fill="#333333"/>
<path d="M28.2027 25.4701V17.9185H27.1937V20.306C26.5 20.1166 25.8272 20.0116 25.1439 20.0116C24.3766 20.0116 23.5672 20.1376 22.947 20.4953C22.1166 20.9685 21.7695 21.831 21.7695 22.8196C21.7695 23.7137 21.9694 24.5446 22.6 25.0704C23.1468 25.5226 23.8195 25.6173 24.4921 25.6173C25.3437 25.6173 26.4789 25.3545 27.3305 25.1441L27.3829 25.4701H28.2027ZM27.1937 24.3762C26.3424 24.5656 25.4489 24.7444 24.692 24.7444C23.4831 24.7444 22.8208 24.1765 22.8208 22.8091C22.8208 21.3997 23.5777 20.8319 25.2595 20.8319C25.9218 20.8319 26.6051 20.9371 27.1937 21.1473V24.3762Z" fill="#333333"/>
<path d="M36.0761 25.4701V20.1586H35.0566V24.3762C34.268 24.5656 33.4375 24.7444 32.6915 24.7444C31.7872 24.7444 31.2091 24.4077 31.2091 23.3035V20.1586H30.2V23.4507C30.2 24.1554 30.3261 24.6813 30.7361 25.0809C31.1987 25.5226 31.8083 25.6173 32.4494 25.6173C33.2903 25.6173 34.3311 25.386 35.1827 25.1545L35.2457 25.4701H36.0761Z" fill="#333333"/>
<path d="M42.8981 25.2913V24.4814C42.1519 24.6288 41.3318 24.776 40.6695 24.776C39.3242 24.776 38.725 24.1765 38.725 22.8302C38.725 21.4104 39.4924 20.8529 41.1008 20.8529C41.6683 20.8529 42.2464 20.8951 42.7825 20.9475V20.1166C42.173 20.0641 41.6158 20.0116 41.0377 20.0116C40.2072 20.0116 39.4504 20.1167 38.8091 20.5059C37.9786 21.0107 37.6738 21.9151 37.6738 22.8197C37.6738 23.7137 37.8632 24.534 38.5042 25.06C39.0508 25.5121 39.7552 25.6173 40.4385 25.6173C41.2057 25.6173 42.1098 25.4491 42.8981 25.2913Z" fill="#333333"/>
<path d="M48.2801 25.4701V24.6813C47.9439 24.734 47.5234 24.7865 47.1345 24.7865C46.6298 24.7865 46.1989 24.6181 46.0306 24.166C45.915 23.8609 45.8941 23.4611 45.8941 23.009V20.9685H48.1436V20.1587H45.8941V18.5496H45.0111L44.885 20.1587H43.6971V20.9685H44.885V23.188C44.885 23.84 44.9584 24.3236 45.1583 24.734C45.4421 25.3335 46.0728 25.6173 46.8822 25.6173C47.3342 25.6173 47.8599 25.5332 48.2801 25.4701Z" fill="#333333"/>
<path d="M54.1141 23.9872C54.1141 23.0299 53.5676 22.6515 52.3692 22.4411C51.7385 22.3148 51.234 22.2622 50.7714 22.1255C50.4141 22.0203 50.2459 21.8416 50.2459 21.5049C50.2459 21.242 50.3404 20.9792 50.7189 20.8844C51.0344 20.8003 51.4967 20.7899 51.8646 20.7899C52.4848 20.7899 53.1471 20.8423 53.7673 20.9055V20.1166C53.1156 20.0537 52.4954 20.0116 51.9066 20.0116C51.4022 20.0116 50.6348 20.0431 50.1408 20.2638C49.5311 20.5373 49.3419 21.0317 49.3419 21.568C49.3419 22.4936 49.8673 22.8723 51.0553 23.0827C51.6859 23.2089 52.201 23.2614 52.6636 23.4087C53.0209 23.5243 53.1891 23.6926 53.1891 24.0502C53.1891 24.3446 53.0945 24.6077 52.6951 24.7129C52.3587 24.797 51.8331 24.8074 51.4022 24.8074C50.782 24.8074 49.9725 24.7654 49.3523 24.6918V25.5227C50.0252 25.5753 50.8031 25.6173 51.4337 25.6173C51.9698 25.6173 52.7582 25.5964 53.2732 25.3649C53.9145 25.0809 54.1141 24.5656 54.1141 23.9872Z" fill="#333333"/>
<path d="M67.874 25.4701C67.3694 25.1441 66.7491 24.7549 66.0869 24.3236C66.5496 23.7348 66.7491 22.9985 66.7491 21.9783V21.7468H65.656V21.9783C65.656 22.7882 65.5826 23.3245 65.2671 23.7871C64.3421 23.188 63.417 22.5674 62.492 21.9362C64.0687 21.4839 64.9412 21.1579 64.9412 19.8957C64.9412 19.2648 64.689 18.8336 64.2686 18.5601C63.7744 18.2341 63.0807 18.1183 62.3343 18.1183C61.6302 18.1183 61.052 18.2236 60.6207 18.4445C60.0219 18.7494 59.7064 19.2753 59.7064 20.0116C59.7064 20.8108 60.0112 21.2735 60.5789 21.7574C59.8009 22.0941 59.3279 22.6198 59.3279 23.6296C59.3279 24.4604 59.7275 24.9968 60.4001 25.2913C61.0203 25.5647 61.8192 25.6173 62.5865 25.6173C63.5642 25.6173 64.5207 25.5016 65.2776 24.9441C65.5508 25.1125 65.8137 25.2808 66.1185 25.4701H67.874ZM62.6707 24.8074C61.2306 24.8074 60.3897 24.5236 60.3897 23.5874C60.3897 22.9354 60.684 22.5778 61.3147 22.3359C61.8823 22.7354 62.6814 23.2718 64.4473 24.4184C64.0162 24.7233 63.4381 24.8074 62.6707 24.8074ZM63.8901 19.9485C63.8901 20.8003 63.1437 20.9896 61.693 21.3894C61.0623 20.9266 60.7576 20.5691 60.7576 19.9905C60.7576 19.2017 61.3147 18.9177 62.3239 18.9177C63.354 18.9177 63.8901 19.191 63.8901 19.9485Z" fill="#333333"/>
<path d="M78.5958 23.4507C78.5958 22.073 77.7234 21.6102 76.0626 21.3472C75.4528 21.2526 74.9062 21.1683 74.4122 21.0212C73.8656 20.853 73.6975 20.5584 73.6975 20.0852C73.6975 19.654 73.8447 19.328 74.4122 19.1596C74.7697 19.0649 75.2426 19.0229 75.7263 19.0229C76.4409 19.0229 77.3029 19.0754 78.1438 19.1701V18.2341C77.2925 18.1603 76.5042 18.1183 75.7472 18.1183C75.1061 18.1183 74.307 18.171 73.7184 18.4445C72.8986 18.823 72.6569 19.5066 72.6569 20.2113C72.6569 21.5157 73.4661 21.9572 75.085 22.2307C75.7578 22.3463 76.2624 22.4201 76.7985 22.5778C77.366 22.7564 77.5446 23.0617 77.5446 23.556C77.5446 23.9975 77.3977 24.3762 76.8089 24.5447C76.4409 24.6392 75.9259 24.6813 75.3058 24.6813C74.5489 24.6813 73.5923 24.6288 72.6672 24.534V25.5121C73.6344 25.5753 74.5069 25.6173 75.3689 25.6173C76.0942 25.6173 76.9036 25.5543 77.5026 25.2704C78.3437 24.881 78.5958 24.1765 78.5958 23.4507Z" fill="#333333"/>
<path d="M86.7425 22.8091C86.7425 21.852 86.4901 21.0634 85.7754 20.5795C85.1551 20.1483 84.3248 20.0116 83.3367 20.0116C82.3275 20.0116 81.4972 20.1483 80.8771 20.5795C80.1727 21.0634 79.9099 21.8626 79.9099 22.8197C79.9099 23.7871 80.1727 24.5761 80.8771 25.06C81.4972 25.4912 82.3275 25.6173 83.3367 25.6173C84.3142 25.6173 85.1551 25.4912 85.7754 25.06C86.4798 24.5761 86.7425 23.7767 86.7425 22.8091ZM85.6912 22.8616C85.6912 24.2921 84.9659 24.8074 83.3367 24.8074C81.6758 24.8074 80.9612 24.1869 80.9612 22.7775C80.9612 21.3472 81.6864 20.8319 83.3367 20.8319C84.9766 20.8319 85.6912 21.4628 85.6912 22.8616Z" fill="#333333"/>
<path d="M89.3599 17.9185H88.3507V25.4701H89.3599V17.9185Z" fill="#333333"/>
<path d="M97.3068 25.4701V20.1586H96.2871V24.3762C95.4986 24.5656 94.6684 24.7444 93.922 24.7444C93.0179 24.7444 92.4398 24.4077 92.4398 23.3035V20.1586H91.4307V23.4507C91.4307 24.1554 91.5569 24.6813 91.9668 25.0809C92.4293 25.5226 93.039 25.6173 93.6803 25.6173C94.5212 25.6173 95.5617 25.386 96.4132 25.1545L96.4763 25.4701H97.3068Z" fill="#333333"/>
<path d="M103.162 25.4701V24.6813C102.825 24.734 102.405 24.7865 102.016 24.7865C101.511 24.7865 101.081 24.6181 100.912 24.166C100.797 23.8609 100.775 23.4611 100.775 23.009V20.9685H103.025V20.1587H100.775V18.5496H99.8925L99.7664 20.1587H98.5786V20.9685H99.7664V23.188C99.7664 23.84 99.84 24.3236 100.04 24.734C100.323 25.3335 100.954 25.6173 101.764 25.6173C102.215 25.6173 102.741 25.5332 103.162 25.4701Z" fill="#333333"/>
<path d="M105.653 25.4701V20.1586H104.644V25.4701H105.653ZM105.695 18.8968V17.9185H104.591V18.8968H105.695Z" fill="#333333"/>
<path d="M114.083 22.8091C114.083 21.852 113.831 21.0634 113.116 20.5795C112.496 20.1483 111.666 20.0116 110.678 20.0116C109.669 20.0116 108.838 20.1483 108.218 20.5795C107.514 21.0634 107.251 21.8626 107.251 22.8197C107.251 23.7871 107.514 24.5761 108.218 25.06C108.838 25.4912 109.669 25.6173 110.678 25.6173C111.655 25.6173 112.496 25.4912 113.116 25.06C113.82 24.5761 114.083 23.7767 114.083 22.8091ZM113.032 22.8616C113.032 24.2921 112.307 24.8074 110.678 24.8074C109.017 24.8074 108.302 24.1869 108.302 22.7775C108.302 21.3472 109.027 20.8319 110.678 20.8319C112.317 20.8319 113.032 21.4628 113.032 22.8616Z" fill="#333333"/>
<path d="M121.81 25.4701V22.1782C121.81 21.4735 121.683 20.9581 121.242 20.5584C120.748 20.1166 120.107 20.0116 119.444 20.0116C118.561 20.0116 117.468 20.2638 116.564 20.4848L116.511 20.1586H115.692V25.4701H116.701V21.2631C117.531 21.0737 118.425 20.8844 119.223 20.8844C120.18 20.8844 120.8 21.2315 120.8 22.3252V25.4701H121.81Z" fill="#333333"/>
<path d="M128.232 23.9872C128.232 23.0299 127.686 22.6515 126.487 22.4411C125.857 22.3148 125.352 22.2622 124.889 22.1255C124.532 22.0203 124.364 21.8416 124.364 21.5049C124.364 21.242 124.458 20.9792 124.837 20.8844C125.152 20.8003 125.615 20.7899 125.983 20.7899C126.603 20.7899 127.265 20.8423 127.885 20.9055V20.1166C127.234 20.0537 126.613 20.0116 126.025 20.0116C125.52 20.0116 124.753 20.0431 124.259 20.2638C123.649 20.5373 123.46 21.0317 123.46 21.568C123.46 22.4936 123.985 22.8723 125.173 23.0827C125.804 23.2089 126.319 23.2614 126.782 23.4087C127.139 23.5243 127.307 23.6926 127.307 24.0502C127.307 24.3446 127.213 24.6077 126.813 24.7129C126.477 24.797 125.951 24.8074 125.52 24.8074C124.9 24.8074 124.091 24.7654 123.47 24.6918V25.5227C124.143 25.5753 124.921 25.6173 125.552 25.6173C126.088 25.6173 126.876 25.5964 127.391 25.3649C128.032 25.0809 128.232 24.5656 128.232 23.9872Z" fill="#333333"/>
</g>
<defs>
<clipPath id="clip0_1_4083">
<rect width="137.731" height="25.5" fill="white" transform="translate(0.269531 0.25)"/>
</clipPath>
</defs>
</svg>
