<svg width="245" height="47" viewBox="0 0 245 47" fill="none" xmlns="http://www.w3.org/2000/svg">
<path d="M3.11973 26.1112C3.11973 23.785 3.68189 21.7108 4.80621 19.8886C5.96929 18.0277 7.52008 16.5545 9.45856 15.4689C11.397 14.3834 13.5294 13.8406 15.8556 13.8406C18.1817 13.8406 19.907 14.2283 21.0313 15.0037C22.1944 15.7403 22.6402 16.632 22.3689 17.6788C22.2525 18.2216 22.0199 18.648 21.671 18.9582C21.3608 19.2296 20.9925 19.404 20.5661 19.4816C20.1396 19.5591 19.6744 19.5397 19.1704 19.4234C16.6891 18.9194 14.4598 18.8806 12.4826 19.3071C10.5053 19.7336 8.93517 20.5283 7.77208 21.6914C6.64776 22.8545 6.0856 24.3278 6.0856 26.1112H3.11973ZM3.17788 46C2.24741 46 1.53017 45.7674 1.02616 45.3021C0.522159 44.7981 0.270157 44.0615 0.270157 43.0923V17.0972C0.270157 16.1668 0.522159 15.4495 1.02616 14.9455C1.53017 14.4415 2.24741 14.1895 3.17788 14.1895C4.14712 14.1895 4.86436 14.4415 5.32959 14.9455C5.8336 15.4108 6.0856 16.128 6.0856 17.0972V43.0923C6.0856 44.0227 5.8336 44.74 5.32959 45.244C4.86436 45.748 4.14712 46 3.17788 46ZM38.1696 46.2326C34.9517 46.2326 32.0827 45.5541 29.5627 44.1972C27.0814 42.8015 25.1236 40.9018 23.6891 38.4981C22.2934 36.0556 21.5955 33.2642 21.5955 30.1238C21.5955 26.9447 22.2546 24.1533 23.5728 21.7496C24.9297 19.3071 26.7907 17.4074 29.1556 16.0504C31.5206 14.6547 34.2344 13.9569 37.2972 13.9569C40.3213 13.9569 42.9188 14.6354 45.0899 15.9923C47.261 17.3105 48.9087 19.152 50.0331 21.517C51.1962 23.8431 51.7777 26.5376 51.7777 29.6004C51.7777 30.3371 51.5257 30.9574 51.0217 31.4614C50.5177 31.9266 49.878 32.1592 49.1026 32.1592H25.6663V27.5069H48.9281L46.5438 29.1352C46.505 27.1967 46.1173 25.4715 45.3807 23.9595C44.6441 22.4087 43.5973 21.1874 42.2404 20.2957C40.8834 19.404 39.2357 18.9582 37.2972 18.9582C35.0874 18.9582 33.1877 19.4428 31.5981 20.412C30.0473 21.3813 28.8648 22.7188 28.0507 24.4247C27.2365 26.0918 26.8294 27.9915 26.8294 30.1238C26.8294 32.2562 27.3141 34.1559 28.2833 35.823C29.2525 37.4901 30.5901 38.8082 32.296 39.7775C34.0018 40.7467 35.9597 41.2313 38.1696 41.2313C39.3714 41.2313 40.5927 41.0181 41.8333 40.5916C43.1127 40.1264 44.1401 39.603 44.9155 39.0215C45.497 38.595 46.1173 38.3818 46.7764 38.3818C47.4743 38.343 48.0752 38.5368 48.5792 38.9633C49.2383 39.5449 49.5872 40.1846 49.626 40.8824C49.6648 41.5803 49.3546 42.1812 48.6955 42.6852C47.3773 43.732 45.7296 44.5849 43.7524 45.244C41.8139 45.9031 39.953 46.2326 38.1696 46.2326ZM68.4666 46.2326C65.6364 46.2326 63.097 45.5348 60.8484 44.1391C58.5997 42.7046 56.8163 40.7855 55.4982 38.3818C54.2188 35.9393 53.5791 33.1866 53.5791 30.1238C53.5791 27.061 54.2769 24.3084 55.6726 21.8659C57.1071 19.4234 59.0262 17.5043 61.4299 16.1086C63.8724 14.6741 66.6057 13.9569 69.6297 13.9569C72.6537 13.9569 75.3676 14.6741 77.7713 16.1086C80.175 17.5043 82.0748 19.4234 83.4705 21.8659C84.9049 24.3084 85.6222 27.061 85.6222 30.1238H83.3542C83.3542 33.1866 82.6951 35.9393 81.3769 38.3818C80.0975 40.7855 78.3335 42.7046 76.0849 44.1391C73.8362 45.5348 71.2968 46.2326 68.4666 46.2326ZM69.6297 40.9987C71.607 40.9987 73.371 40.5335 74.9218 39.603C76.4725 38.6338 77.6938 37.335 78.5855 35.7067C79.4772 34.0396 79.923 32.1786 79.923 30.1238C79.923 28.0303 79.4772 26.1693 78.5855 24.541C77.6938 22.8739 76.4725 21.5751 74.9218 20.6447C73.371 19.6754 71.607 19.1908 69.6297 19.1908C67.6912 19.1908 65.9272 19.6754 64.3376 20.6447C62.7869 21.5751 61.5462 22.8739 60.6158 24.541C59.7241 26.1693 59.2782 28.0303 59.2782 30.1238C59.2782 32.1786 59.7241 34.0396 60.6158 35.7067C61.5462 37.335 62.7869 38.6338 64.3376 39.603C65.9272 40.5335 67.6912 40.9987 69.6297 40.9987ZM82.6563 46.0582C81.8034 46.0582 81.0861 45.7868 80.5046 45.244C79.9618 44.6624 79.6904 43.9452 79.6904 43.0923V34.1946L80.7954 28.0303L85.6222 30.1238V43.0923C85.6222 43.9452 85.3314 44.6624 84.7499 45.244C84.2071 45.7868 83.5092 46.0582 82.6563 46.0582ZM99.0104 46C97.3045 46 95.7925 45.5348 94.4743 44.6043C93.1562 43.6738 92.1288 42.4138 91.3921 40.8243C90.6555 39.1959 90.2872 37.335 90.2872 35.2414V3.48909C90.2872 2.63616 90.5586 1.9383 91.1014 1.39553C91.6442 0.852752 92.342 0.581365 93.1949 0.581365C94.0479 0.581365 94.7457 0.852752 95.2885 1.39553C95.8313 1.9383 96.1027 2.63616 96.1027 3.48909V35.2414C96.1027 36.6759 96.374 37.8584 96.9168 38.7888C97.4596 39.7193 98.1575 40.1846 99.0104 40.1846H100.464C101.24 40.1846 101.86 40.4559 102.325 40.9987C102.829 41.5415 103.081 42.2393 103.081 43.0923C103.081 43.9452 102.713 44.6431 101.976 45.1858C101.24 45.7286 100.29 46 99.1267 46H99.0104ZM118.547 46.2326C115.523 46.2326 112.79 45.5348 110.347 44.1391C107.944 42.7046 106.024 40.7661 104.59 38.3236C103.194 35.8811 102.496 33.1285 102.496 30.0657C102.496 27.0029 103.136 24.2696 104.416 21.8659C105.734 19.4234 107.517 17.5043 109.766 16.1086C112.014 14.6741 114.554 13.9569 117.384 13.9569C119.671 13.9569 121.784 14.4415 123.723 15.4108C125.661 16.3412 127.29 17.6206 128.608 19.2489V3.54724C128.608 2.65554 128.879 1.9383 129.422 1.39553C130.003 0.852752 130.721 0.581365 131.574 0.581365C132.465 0.581365 133.183 0.852752 133.725 1.39553C134.268 1.9383 134.54 2.65554 134.54 3.54724V30.0657C134.54 33.1285 133.822 35.8811 132.388 38.3236C130.992 40.7661 129.092 42.7046 126.689 44.1391C124.285 45.5348 121.571 46.2326 118.547 46.2326ZM118.547 40.9987C120.524 40.9987 122.288 40.5335 123.839 39.603C125.39 38.6338 126.611 37.3156 127.503 35.6485C128.395 33.9814 128.84 32.1205 128.84 30.0657C128.84 27.9721 128.395 26.1112 127.503 24.4828C126.611 22.8545 125.39 21.5751 123.839 20.6447C122.288 19.6754 120.524 19.1908 118.547 19.1908C116.609 19.1908 114.845 19.6754 113.255 20.6447C111.704 21.5751 110.464 22.8545 109.533 24.4828C108.641 26.1112 108.196 27.9721 108.196 30.0657C108.196 32.1205 108.641 33.9814 109.533 35.6485C110.464 37.3156 111.704 38.6338 113.255 39.603C114.845 40.5335 116.609 40.9987 118.547 40.9987ZM217.466 34.4273C216.613 34.4273 215.896 34.1559 215.315 33.6131C214.772 33.0316 214.5 32.3143 214.5 31.4614V3.54724C214.5 2.65554 214.772 1.9383 215.315 1.39553C215.896 0.852752 216.613 0.581365 217.466 0.581365C218.358 0.581365 219.075 0.852752 219.618 1.39553C220.161 1.9383 220.432 2.65554 220.432 3.54724V31.4614C220.432 32.3143 220.161 33.0316 219.618 33.6131C219.075 34.1559 218.358 34.4273 217.466 34.4273ZM241.368 46.0582C240.515 46.0582 239.798 45.7868 239.216 45.244C238.673 44.6624 238.402 43.9452 238.402 43.0923V28.7863C238.402 26.5764 237.995 24.7736 237.181 23.3779C236.366 21.9822 235.262 20.9548 233.866 20.2957C232.509 19.5979 230.939 19.2489 229.155 19.2489C227.527 19.2489 226.054 19.5785 224.736 20.2376C223.417 20.8967 222.371 21.7884 221.595 22.9127C220.82 23.9982 220.432 25.2582 220.432 26.6927H216.768C216.768 24.2502 217.35 22.0791 218.513 20.1794C219.715 18.2409 221.343 16.7095 223.398 15.5852C225.453 14.4609 227.76 13.8987 230.318 13.8987C232.994 13.8987 235.378 14.4803 237.471 15.6434C239.604 16.7677 241.271 18.4348 242.473 20.6447C243.713 22.8545 244.334 25.5684 244.334 28.7863V43.0923C244.334 43.9452 244.043 44.6624 243.461 45.244C242.919 45.7868 242.221 46.0582 241.368 46.0582ZM217.466 46.0582C216.613 46.0582 215.896 45.7868 215.315 45.244C214.772 44.6624 214.5 43.9452 214.5 43.0923V17.1554C214.5 16.2637 214.772 15.5464 215.315 15.0037C215.896 14.4609 216.613 14.1895 217.466 14.1895C218.358 14.1895 219.075 14.4609 219.618 15.0037C220.161 15.5464 220.432 16.2637 220.432 17.1554V43.0923C220.432 43.9452 220.161 44.6624 219.618 45.244C219.075 45.7868 218.358 46.0582 217.466 46.0582Z" fill="#0F0F0F"/>
<path d="M156.437 46.2326C153.297 46.2326 150.525 45.5541 148.121 44.1972C145.717 42.8015 143.817 40.9018 142.422 38.4981C141.065 36.0556 140.386 33.2642 140.386 30.1238C140.386 26.9447 141.065 24.1533 142.422 21.7496C143.817 19.3071 145.717 17.4074 148.121 16.0504C150.525 14.6547 153.297 13.9569 156.437 13.9569C159.538 13.9569 162.291 14.6547 164.695 16.0504C167.099 17.4074 168.979 19.3071 170.336 21.7496C171.732 24.1533 172.429 26.9447 172.429 30.1238C172.429 33.2642 171.751 36.0556 170.394 38.4981C169.037 40.9018 167.157 42.8015 164.753 44.1972C162.349 45.5541 159.577 46.2326 156.437 46.2326ZM156.437 40.9987C158.453 40.9987 160.236 40.5335 161.787 39.603C163.338 38.6725 164.54 37.3931 165.393 35.7648C166.284 34.1365 166.73 32.2562 166.73 30.1238C166.73 27.9915 166.284 26.1112 165.393 24.4828C164.54 22.8158 163.338 21.517 161.787 20.5865C160.236 19.656 158.453 19.1908 156.437 19.1908C154.421 19.1908 152.637 19.656 151.087 20.5865C149.536 21.517 148.315 22.8158 147.423 24.4828C146.531 26.1112 146.085 27.9915 146.085 30.1238C146.085 32.2562 146.531 34.1365 147.423 35.7648C148.315 37.3931 149.536 38.6725 151.087 39.603C152.637 40.5335 154.421 40.9987 156.437 40.9987Z" fill="#FF6C00"/>
<path d="M192.68 46.2326C189.539 46.2326 186.767 45.5541 184.364 44.1972C181.96 42.8015 180.06 40.9018 178.665 38.4981C177.308 36.0556 176.629 33.2642 176.629 30.1238C176.629 26.9447 177.308 24.1533 178.665 21.7496C180.06 19.3071 181.96 17.4074 184.364 16.0504C186.767 14.6547 189.539 13.9569 192.68 13.9569C195.781 13.9569 198.534 14.6547 200.938 16.0504C203.341 17.4074 205.222 19.3071 206.579 21.7496C207.974 24.1533 208.672 26.9447 208.672 30.1238C208.672 33.2642 207.994 36.0556 206.637 38.4981C205.28 40.9018 203.4 42.8015 200.996 44.1972C198.592 45.5541 195.82 46.2326 192.68 46.2326ZM192.68 40.9987C194.696 40.9987 196.479 40.5335 198.03 39.603C199.581 38.6725 200.783 37.3931 201.636 35.7648C202.527 34.1365 202.973 32.2562 202.973 30.1238C202.973 27.9915 202.527 26.1112 201.636 24.4828C200.783 22.8158 199.581 21.517 198.03 20.5865C196.479 19.656 194.696 19.1908 192.68 19.1908C190.664 19.1908 188.88 19.656 187.33 20.5865C185.779 21.517 184.558 22.8158 183.666 24.4828C182.774 26.1112 182.328 27.9915 182.328 30.1238C182.328 32.2562 182.774 34.1365 183.666 35.7648C184.558 37.3931 185.779 38.6725 187.33 39.603C188.88 40.5335 190.664 40.9987 192.68 40.9987Z" fill="#16697A"/>
</svg>
